<?xml version="1.0" encoding="utf-8"?>
<!-- Generator: Adobe Illustrator 19.0.0, SVG Export Plug-In . SVG Version: 6.00 Build 0)  -->
<svg version="1.1" id="Layer_1" xmlns="http://www.w3.org/2000/svg" xmlns:xlink="http://www.w3.org/1999/xlink" x="0px" y="0px"
	 viewBox="-269 102 469 469" style="enable-background:new -269 102 469 469;" xml:space="preserve">
<style type="text/css">
	.st0{fill:#FFFFFF;}
</style>
<g>
	<g>
		<g>
			<path class="st0" d="M175.3,171.7h-419.6c-13.6,0-24.7,11.1-24.7,24.7v280.3c0,13.6,11.1,24.7,24.7,24.7h419.6
				c13.6,0,24.7-11.1,24.7-24.7V196.4C200,182.7,188.9,171.7,175.3,171.7z M185,476.6c0,5.3-4.4,9.7-9.7,9.7h-419.6
				c-5.4,0-9.7-4.4-9.7-9.7V230h439V476.6z M185,215h-439v-18.6c0-5.3,4.4-9.7,9.7-9.7h419.6c5.4,0,9.7,4.4,9.7,9.7L185,215L185,215
				z"/>
			<path class="st0" d="M-1.5,193.3h-188c-4.1,0-7.5,3.4-7.5,7.5s3.4,7.5,7.5,7.5h188c4.1,0,7.5-3.4,7.5-7.5S2.6,193.3-1.5,193.3z"
				/>
			<path class="st0" d="M-214.5,193.3c-2,0-3.9,0.8-5.3,2.2c-1.4,1.4-2.2,3.3-2.2,5.3c0,2,0.8,3.9,2.2,5.3c1.4,1.4,3.3,2.2,5.3,2.2
				c2,0,3.9-0.8,5.3-2.2c1.4-1.4,2.2-3.3,2.2-5.3c0-2-0.8-3.9-2.2-5.3C-210.6,194.1-212.5,193.3-214.5,193.3z"/>
			<path class="st0" d="M-238.5,193.3c-2,0-3.9,0.8-5.3,2.2c-1.4,1.4-2.2,3.3-2.2,5.3c0,2,0.8,3.9,2.2,5.3c1.4,1.4,3.3,2.2,5.3,2.2
				c2,0,3.9-0.8,5.3-2.2c1.4-1.4,2.2-3.3,2.2-5.3c0-2-0.8-3.9-2.2-5.3C-234.6,194.1-236.5,193.3-238.5,193.3z"/>
			<path class="st0" d="M-86.3,416.7c1.5,1.5,3.4,2.3,5.4,2.3c1.9,0,3.7-0.7,5.2-2.1c3-2.9,3.1-7.6,0.2-10.6l-51.8-53.8l51.8-53.8
				c2.9-3,2.8-7.7-0.2-10.6c-3-2.9-7.7-2.8-10.6,0.2l-56.8,59c-2.8,2.9-2.8,7.5,0,10.4L-86.3,416.7z"/>
			<path class="st0" d="M58.3,352.5L6.5,406.3c-2.9,3-2.8,7.7,0.2,10.6c1.5,1.4,3.3,2.1,5.2,2.1c2,0,3.9-0.8,5.4-2.3l56.8-59
				c2.8-2.9,2.8-7.5,0-10.4l-56.8-59c-2.9-3-7.6-3.1-10.6-0.2c-3,2.9-3.1,7.6-0.2,10.6L58.3,352.5z"/>
			<path class="st0" d="M-58.3,435.7c0.7,0.2,1.4,0.3,2,0.3c3.3,0,6.3-2.2,7.2-5.5l43.5-156c1.1-4-1.2-8.1-5.2-9.2
				c-4-1.1-8.1,1.2-9.2,5.2l-43.5,156C-64.6,430.5-62.3,434.6-58.3,435.7z"/>
		</g>
	</g>
</g>
</svg>
