<?xml version="1.0" encoding="utf-8"?>
<!-- Generator: Adobe Illustrator 19.0.0, SVG Export Plug-In . SVG Version: 6.00 Build 0)  -->
<svg version="1.1" id="Layer_1" xmlns="http://www.w3.org/2000/svg" xmlns:xlink="http://www.w3.org/1999/xlink" x="0px" y="0px"
	 viewBox="-271 105.6 463.4 463.4" style="enable-background:new -271 105.6 463.4 463.4;" xml:space="preserve">
<style type="text/css">
	.st0{fill:#FFFFFF;}
</style>
<g>
	<g>
		<g>
			<path class="st0" d="M-80,481.7h223.6c4.1,0,7.5-3.4,7.5-7.5V354c0-4.1-3.4-7.5-7.5-7.5H-80c-4.1,0-7.5,3.4-7.5,7.5v120.2
				C-87.5,478.3-84.2,481.7-80,481.7z M-72.5,361.5H136v105.2H-72.5V361.5z"/>
			<path class="st0" d="M184.9,489.7H174V343.3c0-10.9-8.9-19.8-19.8-19.8H48.1v-27.9h21.3c12.5,0,22.7-10.2,22.7-22.7V167.4
				c0-12.5-10.2-22.7-22.7-22.7H11.8c-12.5,0-22.7,10.2-22.7,22.7v27.3h-235.4c-13.6,0-24.7,11.1-24.7,24.7v176.4
				c0,13.6,11.1,24.7,24.7,24.7h106.4l-6.1,27.2h-20c-4.1,0-7.5,3.4-7.5,7.5s3.4,7.5,7.5,7.5h55.4v27.1h-10.8
				c-4.1,0-7.5,3.4-7.5,7.5c0,18.1,14.7,32.8,32.8,32.8h255.6c18.1,0,32.8-14.7,32.8-32.8C192.4,493,189,489.7,184.9,489.7z
				 M154.2,338.5c2.7,0,4.8,2.2,4.8,4.8v146.3H-95.5v-34.5c0,0,0,0,0,0s0,0,0,0V343.3c0-2.7,2.2-4.8,4.8-4.8L154.2,338.5
				L154.2,338.5z M4.1,167.4c0-4.3,3.5-7.7,7.7-7.7h57.5c4.3,0,7.7,3.5,7.7,7.7v3.3h-73V167.4z M4.1,185.6h73v67h-73V185.6z
				 M4.1,267.6h73v5.3c0,4.3-3.5,7.7-7.7,7.7H11.8c-4.3,0-7.7-3.5-7.7-7.7V267.6z M-256,219.3c0-5.3,4.4-9.7,9.7-9.7h235.4v63.3
				c0,12.5,10.2,22.7,22.7,22.7h21.3v27.9H-90.7c-10.9,0-19.8,8.9-19.8,19.8v27.3H-256V219.3z M-246.3,405.4c-5.3,0-9.7-4.4-9.7-9.7
				v-10.1h145.5v19.8L-246.3,405.4L-246.3,405.4z M-130.6,447.6l6.1-27.2h14v27.2H-130.6z M159.5,515H-96.1
				c-7.2,0-13.3-4.2-16.2-10.3h287.9C172.9,510.8,166.7,515,159.5,515z"/>
		</g>
	</g>
</g>
</svg>
