<?xml version="1.0" encoding="utf-8"?>
<!-- Generator: Adobe Illustrator 19.0.0, SVG Export Plug-In . SVG Version: 6.00 Build 0)  -->
<svg version="1.1" id="Layer_1" xmlns="http://www.w3.org/2000/svg" xmlns:xlink="http://www.w3.org/1999/xlink" x="0px" y="0px"
	 viewBox="-297 130.2 412.8 412.8" style="enable-background:new -297 130.2 412.8 412.8;" xml:space="preserve">
<style type="text/css">
	.st0{fill:#FFFFFF;}
</style>
<g>
	<g>
		<g>
			<path class="st0" d="M-87.2,232.7c-27.2,0.5-52.8,11.4-72,30.8c-19.5,19.7-30.3,45.7-30.3,73.4c0,27.7,10.7,53.8,30.3,73.4
				c19.2,19.4,44.8,30.3,72,30.8c0.1,0,3,0,3.1,0c27.2-0.5,52.8-11.4,72-30.8c19.5-19.7,30.3-45.7,30.3-73.4
				c0-27.7-10.7-53.8-30.3-73.4c-19.2-19.4-44.8-30.3-72-30.8C-84.2,232.7-87.1,232.7-87.2,232.7z M-127.2,258.2
				c-4.1,6-7.8,12.9-10.9,20.7c-3.7-1.5-7.1-3.1-10.3-4.9C-142.2,267.7-135,262.4-127.2,258.2z M-158.2,285.7
				c4.7,2.8,9.8,5.3,15.3,7.5c-3.1,11.4-5,23.7-5.6,36.2h-25.7C-172.8,313.2-167.1,298.3-158.2,285.7z M-174.2,344.4h25.7
				c0.5,12.6,2.4,24.9,5.6,36.2c-5.5,2.2-10.6,4.7-15.3,7.5C-167.1,375.5-172.8,360.5-174.2,344.4z M-148.4,399.8
				c3.2-1.8,6.6-3.4,10.3-4.9c3.1,7.8,6.8,14.7,11,20.7C-135,411.4-142.2,406-148.4,399.8z M-92.8,424.9
				c-12.2-3.7-23.4-16.3-31.1-34.8c9.8-2.6,20.3-4.2,31.1-4.7V424.9z M-92.8,370.4c-12.4,0.5-24.6,2.4-35.9,5.5
				c-2.7-9.9-4.3-20.5-4.8-31.5h40.7L-92.8,370.4L-92.8,370.4z M-92.8,329.4h-40.7c0.5-10.9,2.1-21.6,4.8-31.5
				c11.3,3.1,23.4,4.9,35.9,5.5V329.4z M-92.8,288.3c-10.8-0.5-21.3-2.1-31.1-4.7c7.6-18.6,18.9-31.1,31.1-34.8V288.3z M-44.1,415.6
				c4.1-6,7.8-12.9,11-20.7c3.7,1.5,7.1,3.1,10.3,4.9C-29.1,406-36.3,411.4-44.1,415.6z M-13.1,388.1c-4.7-2.8-9.8-5.3-15.3-7.5
				c3.1-11.4,5-23.7,5.6-36.2H2.9C1.5,360.5-4.2,375.5-13.1,388.1z M2.9,329.4h-25.7v0c-0.5-12.6-2.4-24.9-5.6-36.2
				c5.5-2.2,10.6-4.7,15.3-7.5C-4.2,298.3,1.5,313.2,2.9,329.4z M-22.9,274c-3.2,1.8-6.6,3.4-10.3,4.9c-3.1-7.8-6.8-14.7-10.9-20.7
				C-36.3,262.4-29.1,267.7-22.9,274z M-77.8,249c11.9,4,22.9,16.4,30.3,34.6c-9.5,2.5-19.8,4.1-30.3,4.7L-77.8,249L-77.8,249z
				 M-77.8,329.4v-26c12.2-0.6,24.1-2.4,35.1-5.4c2.7,9.9,4.3,20.5,4.8,31.5L-77.8,329.4L-77.8,329.4L-77.8,329.4z M-77.8,344.4h40
				c-0.5,10.9-2.1,21.6-4.8,31.5c-11-3-23-4.9-35.1-5.4L-77.8,344.4L-77.8,344.4z M-77.8,385.5c10.5,0.5,20.8,2.1,30.3,4.7
				c-7.5,18.2-18.4,30.6-30.3,34.6V385.5z"/>
			<path class="st0" d="M-113.3,200.5H-58c4.1,0,7.5-3.4,7.5-7.5v-55.3c0-4.1-3.4-7.5-7.5-7.5h-55.3c-4.1,0-7.5,3.4-7.5,7.5V193
				C-120.8,197.2-117.4,200.5-113.3,200.5z M-105.8,145.2h40.3v40.3h-40.3V145.2z"/>
			<path class="st0" d="M-79.2,477.4c-1.4-2.2-3.8-3.6-6.4-3.6s-5,1.4-6.4,3.6l-33.1,54.2c-1.4,2.3-1.5,5.2-0.1,7.6
				c1.3,2.4,3.8,3.8,6.5,3.8h66.2c2.7,0,5.2-1.5,6.5-3.8c1.3-2.4,1.3-5.3-0.1-7.6L-79.2,477.4z M-105.4,528l19.7-32.3l19.7,32.3
				H-105.4z"/>
			<path class="st0" d="M-217.3,336.9c0-22-17.9-39.8-39.8-39.8c-22,0-39.8,17.9-39.8,39.8s17.9,39.8,39.8,39.8
				C-235.2,376.7-217.3,358.8-217.3,336.9z M-257.2,361.7c-13.7,0-24.8-11.1-24.8-24.8s11.1-24.8,24.8-24.8
				c13.7,0,24.8,11.1,24.8,24.8C-232.3,350.6-243.5,361.7-257.2,361.7z"/>
			<path class="st0" d="M113.6,354l-17.1-17.1l17.1-17.1c2.9-2.9,2.9-7.7,0-10.6c-2.9-2.9-7.7-2.9-10.6,0l-17.1,17.1l-17.1-17.1
				c-2.9-2.9-7.7-2.9-10.6,0c-2.9,2.9-2.9,7.7,0,10.6l17.1,17.1L58.2,354c-2.9,2.9-2.9,7.7,0,10.6c1.5,1.5,3.4,2.2,5.3,2.2
				c1.9,0,3.8-0.7,5.3-2.2l17.1-17.1l17.1,17.1c1.5,1.5,3.4,2.2,5.3,2.2c1.9,0,3.8-0.7,5.3-2.2C116.5,361.7,116.5,356.9,113.6,354z"
				/>
			<path class="st0" d="M-245.9,268.8c1,0.5,2.1,0.7,3.2,0.7c2.8,0,5.5-1.6,6.8-4.3c16.6-34.8,45-62.9,79.9-79.3
				c3.8-1.8,5.4-6.2,3.6-10c-1.8-3.8-6.2-5.4-10-3.6c-38.1,17.8-69,48.5-87.1,86.4C-251.3,262.5-249.7,267-245.9,268.8z"/>
			<path class="st0" d="M75.8,402.2c-3.8-1.7-8.2-0.1-9.9,3.7c-16.4,36-45.3,65.1-81.2,81.9c-3.8,1.8-5.4,6.2-3.6,10
				c1.3,2.7,4,4.3,6.8,4.3c1.1,0,2.1-0.2,3.2-0.7c39.1-18.3,70.5-50,88.4-89.2C81.2,408.4,79.6,404,75.8,402.2z"/>
			<path class="st0" d="M-15.3,186c34.9,16.3,63.3,44.5,79.9,79.3c1.3,2.7,4,4.3,6.8,4.3c1.1,0,2.2-0.2,3.2-0.7
				c3.7-1.8,5.3-6.3,3.5-10c-18.1-37.9-49-68.6-87.1-86.4c-3.8-1.8-8.2-0.1-10,3.6C-20.7,179.7-19,184.2-15.3,186z"/>
			<path class="st0" d="M-156,487.8c-35.9-16.8-64.7-45.8-81.2-81.9c-1.7-3.8-6.2-5.4-9.9-3.7c-3.8,1.7-5.4,6.2-3.7,9.9
				c17.9,39.3,49.3,70.9,88.4,89.2c1,0.5,2.1,0.7,3.2,0.7c2.8,0,5.5-1.6,6.8-4.3C-150.6,494-152.2,489.6-156,487.8z"/>
		</g>
	</g>
</g>
</svg>
